<svg xmlns="http://www.w3.org/2000/svg" version="1" xmlns:xlink="http://www.w3.org/1999/xlink" width="800" zoomAndPan="magnify" viewBox="0 0 600 599.999999" height="800" preserveAspectRatio="xMidYMid meet"><metadata><rdf:RDF xmlns:rdf="http://www.w3.org/1999/02/22-rdf-syntax-ns#" xmlns:dc="http://purl.org/dc/elements/1.1/"><rdf:Description><dc:creator>RealFaviconGenerator</dc:creator><dc:source>https://realfavicongenerator.net</dc:source></rdf:Description></rdf:RDF></metadata><defs><g></g><clipPath id="ec75ddb090"><path d="M 92 111 L 510 111 L 510 359 L 92 359 Z M 92 111 " clip-rule="nonzero"></path></clipPath><clipPath id="699f7e84e8"><path d="M 94.789062 108.589844 L 511.691406 117.625 L 506.359375 363.566406 L 89.457031 354.53125 Z M 94.789062 108.589844 " clip-rule="nonzero"></path></clipPath><clipPath id="86d20c1135"><path d="M 94.789062 108.589844 L 511.691406 117.625 L 506.359375 363.566406 L 89.457031 354.53125 Z M 94.789062 108.589844 " clip-rule="nonzero"></path></clipPath><clipPath id="9ef1ec8041"><path d="M 94.773438 109.34375 L 511.703125 118.378906 L 506.414062 362.554688 L 89.480469 353.519531 Z M 94.773438 109.34375 " clip-rule="nonzero"></path></clipPath><clipPath id="52a650328d"><path d="M 106 111 L 172 111 L 172 214 L 106 214 Z M 106 111 " clip-rule="nonzero"></path></clipPath><clipPath id="ef74f570dd"><path d="M 94.789062 108.589844 L 511.691406 117.625 L 506.359375 363.566406 L 89.457031 354.53125 Z M 94.789062 108.589844 " clip-rule="nonzero"></path></clipPath><clipPath id="df8bfb1850"><path d="M 94.789062 108.589844 L 511.691406 117.625 L 506.359375 363.566406 L 89.457031 354.53125 Z M 94.789062 108.589844 " clip-rule="nonzero"></path></clipPath><clipPath id="d31a24d179"><path d="M 98 116 L 224 116 L 224 266 L 98 266 Z M 98 116 " clip-rule="nonzero"></path></clipPath><clipPath id="9c8d8a6ef0"><path d="M 174.378906 116.171875 L 223.371094 147.839844 L 147.171875 265.722656 L 98.179688 234.050781 Z M 174.378906 116.171875 " clip-rule="nonzero"></path></clipPath><clipPath id="a5215e13ba"><path d="M 0.160156 0.160156 L 125.441406 0.160156 L 125.441406 149.921875 L 0.160156 149.921875 Z M 0.160156 0.160156 " clip-rule="nonzero"></path></clipPath><clipPath id="173548760e"><path d="M 76.378906 0.171875 L 125.371094 31.839844 L 49.171875 149.722656 L 0.179688 118.050781 Z M 76.378906 0.171875 " clip-rule="nonzero"></path></clipPath><clipPath id="9a18998c80"><rect x="0" width="126" y="0" height="150"></rect></clipPath><clipPath id="99de4bf0b4"><path d="M 386 121 L 502 121 L 502 267 L 386 267 Z M 386 121 " clip-rule="nonzero"></path></clipPath><clipPath id="a06e26afca"><path d="M 386.683594 149.636719 L 437.910156 121.730469 L 501.429688 238.332031 L 450.199219 266.238281 Z M 386.683594 149.636719 " clip-rule="nonzero"></path></clipPath><clipPath id="6820dec05f"><path d="M 0.640625 0.679688 L 115.601562 0.679688 L 115.601562 145.398438 L 0.640625 145.398438 Z M 0.640625 0.679688 " clip-rule="nonzero"></path></clipPath><clipPath id="9630a1e54a"><path d="M 0.683594 28.636719 L 51.910156 0.730469 L 115.429688 117.332031 L 64.199219 145.238281 Z M 0.683594 28.636719 " clip-rule="nonzero"></path></clipPath><clipPath id="5e4fedb580"><rect x="0" width="116" y="0" height="146"></rect></clipPath></defs><rect x="-60" width="720" fill="#22c55e" y="-60" height="719.999999" fill-opacity="1"></rect><rect x="-60" width="720" fill="#22c55e" y="-60" height="719.999999" fill-opacity="1"></rect><g clip-path="url(#ec75ddb090)"><g clip-path="url(#699f7e84e8)"><g clip-path="url(#86d20c1135)"><g clip-path="url(#9ef1ec8041)"><path fill="#ffffff" d="M 278.488281 313.238281 C 285.367188 313.683594 290.613281 319.613281 290.164062 326.496094 C 289.941406 329.972656 288.277344 333.234375 285.527344 335.433594 L 271.46875 346.535156 C 266.007812 350.753906 258.175781 349.730469 253.960938 344.269531 C 249.816406 338.917969 250.726562 331.195312 256.003906 326.941406 L 270.0625 315.835938 C 272.132812 314.25 274.632812 313.339844 277.230469 313.25 C 277.675781 313.222656 278.082031 313.230469 278.488281 313.238281 Z M 253.074219 291.132812 C 259.96875 290.910156 265.742188 296.296875 265.964844 303.191406 C 266.101562 307.117188 264.351562 310.894531 261.261719 313.347656 L 240.042969 330.113281 C 234.652344 334.402344 226.785156 333.457031 222.492188 328.066406 C 218.242188 322.640625 219.152344 314.769531 224.578125 310.515625 L 245.796875 293.75 C 247.867188 292.128906 250.40625 291.183594 253.074219 291.132812 Z M 232.652344 266.019531 C 239.546875 265.835938 245.28125 271.257812 245.503906 278.152344 C 245.601562 282.117188 243.820312 285.855469 240.726562 288.308594 L 213.628906 309.722656 C 208.167969 313.976562 200.335938 312.992188 196.082031 307.527344 C 191.902344 302.140625 192.8125 294.417969 198.128906 290.125 L 225.261719 268.710938 C 227.371094 267.050781 229.949219 266.109375 232.652344 266.019531 Z M 198.929688 251.324219 C 199.339844 251.332031 199.78125 251.339844 200.191406 251.351562 C 207.070312 251.796875 212.3125 257.726562 211.867188 264.605469 C 211.644531 268.121094 209.941406 271.378906 207.191406 273.578125 L 192.191406 285.402344 C 186.621094 289.503906 178.792969 288.335938 174.726562 282.765625 C 170.804688 277.496094 171.667969 270.066406 176.726562 265.808594 L 191.726562 253.945312 C 193.796875 252.324219 196.335938 251.414062 198.96875 251.324219 Z M 284.429688 167.277344 C 288.167969 167.355469 291.902344 167.699219 295.632812 168.296875 C 286.25 173.835938 276.335938 178.398438 266 181.839844 C 259.472656 184.035156 255.945312 191.144531 258.175781 197.675781 C 259.464844 201.480469 262.472656 204.433594 266.335938 205.628906 C 285.289062 211.449219 305.726562 210.078125 323.761719 201.835938 L 403.234375 269.269531 C 408.144531 273.5625 408.648438 281.054688 404.355469 285.964844 C 400.328125 290.582031 393.421875 291.355469 388.460938 287.769531 L 328.90625 242.953125 C 327.230469 241.769531 324.925781 242.125 323.703125 243.765625 C 322.519531 245.371094 322.84375 247.636719 324.445312 248.894531 L 381.960938 292.109375 C 387.347656 296.410156 388.253906 304.246094 383.949219 309.671875 C 379.800781 314.84375 372.332031 315.902344 366.933594 312.082031 L 312.625 271.269531 C 311.019531 270.050781 308.679688 270.371094 307.460938 272.011719 C 306.238281 273.652344 306.597656 275.957031 308.199219 277.175781 L 356.128906 313.21875 C 361.746094 317.191406 363.058594 325 359.046875 330.617188 C 355.074219 336.234375 347.265625 337.546875 341.648438 333.574219 C 341.46875 333.421875 341.285156 333.308594 341.101562 333.15625 L 296.050781 299.285156 C 294.335938 298.136719 292.03125 298.605469 290.917969 300.324219 C 289.847656 301.890625 290.136719 303.972656 291.589844 305.191406 L 326.070312 331.125 C 330.839844 334.96875 331.578125 341.949219 327.734375 346.71875 C 324.078125 351.234375 317.539062 352.164062 312.757812 348.839844 L 295.082031 335.566406 C 300.546875 326.015625 297.253906 313.867188 287.742188 308.402344 C 283.351562 305.863281 278.183594 305.121094 273.269531 306.273438 C 274.761719 295.417969 267.164062 285.363281 256.269531 283.867188 C 254.941406 283.652344 253.570312 283.621094 252.238281 283.703125 C 255.097656 273.097656 248.851562 262.183594 238.246094 259.285156 C 232.167969 257.636719 225.65625 258.976562 220.683594 262.90625 L 219.324219 263.988281 C 219.453125 252.988281 210.648438 243.984375 199.648438 243.894531 C 195.128906 243.832031 190.691406 245.328125 187.148438 248.140625 L 174.183594 258.378906 L 162.742188 249.613281 L 212.898438 170.949219 C 228.847656 171.664062 244.777344 171.492188 260.691406 170.390625 C 268.410156 168.1875 276.433594 167.101562 284.429688 167.277344 Z M 321.191406 166.554688 C 323.667969 166.71875 326.140625 167.253906 328.492188 168.15625 L 364.421875 181.863281 L 392.261719 172.355469 L 436.828125 247.292969 L 412.320312 268.800781 C 411.214844 266.8125 409.769531 265.078125 408.027344 263.597656 L 324.839844 193.007812 C 307.5625 202.335938 287.257812 204.304688 268.492188 198.527344 C 265.804688 197.726562 264.3125 194.878906 265.109375 192.195312 C 265.589844 190.613281 266.800781 189.378906 268.367188 188.855469 C 281.578125 184.4375 294.15625 178.304688 305.839844 170.628906 C 310.351562 167.652344 315.753906 166.214844 321.191406 166.554688 Z M 435.472656 128.617188 L 498.980469 235.378906 L 454.214844 262.042969 L 390.667969 155.242188 Z M 174.042969 121.210938 L 217.960938 149.203125 L 146.0625 261.992188 L 102.148438 233.964844 Z M 171.78125 111.011719 L 92.023438 236.226562 L 148.4375 272.195312 L 158.828125 255.863281 L 168.773438 263.484375 C 162.066406 272.195312 163.722656 284.675781 172.429688 291.382812 C 176.476562 294.472656 181.519531 295.914062 186.605469 295.394531 C 184.078125 306.082031 190.734375 316.785156 201.421875 319.273438 C 205.105469 320.167969 209 319.957031 212.585938 318.703125 C 211.679688 329.644531 219.84375 339.230469 230.789062 340.097656 C 235.484375 340.496094 240.105469 339.226562 243.945312 336.496094 C 243.816406 347.492188 252.621094 356.5 263.582031 356.625 C 268.136719 356.6875 272.578125 355.15625 276.160156 352.34375 L 290.253906 341.238281 C 290.253906 341.203125 290.253906 341.203125 290.253906 341.164062 L 308.296875 354.78125 C 316.460938 360.921875 328.054688 359.28125 334.195312 351.117188 C 336.597656 347.910156 337.90625 343.976562 337.878906 339.9375 C 347.160156 345.84375 359.445312 343.109375 365.347656 333.867188 C 367.800781 330.066406 368.863281 325.535156 368.367188 321.039062 C 378.816406 324.414062 390.015625 318.621094 393.390625 308.171875 C 394.503906 304.714844 394.621094 300.976562 393.773438 297.441406 C 404.34375 298.445312 413.734375 290.648438 414.742188 280.078125 C 414.84375 278.894531 414.867188 277.710938 414.746094 276.519531 L 440.652344 253.746094 L 451.621094 272.171875 L 509.113281 237.96875 L 438.027344 118.488281 L 380.535156 152.691406 L 388.398438 165.863281 L 364.515625 174.011719 L 331.121094 161.25 C 322.5625 157.953125 312.996094 158.488281 304.867188 162.644531 C 289.949219 158.800781 274.277344 158.945312 259.40625 163.066406 C 245.460938 163.988281 231.488281 164.203125 217.5 163.714844 L 228.195312 146.980469 L 171.78125 111.011719 " fill-opacity="1" fill-rule="nonzero"></path></g></g></g></g><g clip-path="url(#52a650328d)"><g clip-path="url(#ef74f570dd)"><g clip-path="url(#df8bfb1850)"><path fill="#ffffff" d="M 106.328125 213.644531 L 171.78125 111.011719 " fill-opacity="1" fill-rule="nonzero"></path></g></g></g><g clip-path="url(#d31a24d179)"><g clip-path="url(#9c8d8a6ef0)"><g transform="matrix(1, 0, 0, 1, 98, 116)"><g clip-path="url(#9a18998c80)"><g clip-path="url(#a5215e13ba)"><g clip-path="url(#173548760e)"><path fill="#ffffff" d="M 76.378906 0.171875 L 125.371094 31.839844 L 49.167969 149.730469 L 0.175781 118.058594 Z M 76.378906 0.171875 " fill-opacity="1" fill-rule="nonzero"></path></g></g></g></g></g></g><g clip-path="url(#99de4bf0b4)"><g clip-path="url(#a06e26afca)"><g transform="matrix(1, 0, 0, 1, 386, 121)"><g clip-path="url(#5e4fedb580)"><g clip-path="url(#6820dec05f)"><g clip-path="url(#9630a1e54a)"><path fill="#ffffff" d="M 0.683594 28.636719 L 51.910156 0.730469 L 115.464844 117.398438 L 64.234375 145.304688 Z M 0.683594 28.636719 " fill-opacity="1" fill-rule="nonzero"></path></g></g></g></g></g></g></svg>